<svg width="38" height="45" viewBox="0 0 38 45" fill="none" xmlns="http://www.w3.org/2000/svg">
<path d="M4.75 45C4.07708 45 3.51302 44.773 3.05781 44.3191C2.6026 43.8651 2.375 43.3026 2.375 42.6316V37.7763C1.6625 36.9868 1.08854 36.1086 0.653125 35.1414C0.217708 34.1743 0 33.1184 0 31.9737V9.47368C0 6.19737 1.52396 3.79934 4.57188 2.27961C7.61979 0.759868 12.4292 0 19 0C25.8083 0 30.6771 0.730263 33.6063 2.19079C36.5354 3.65132 38 6.07895 38 9.47368V31.9737C38 33.1184 37.7823 34.1743 37.3469 35.1414C36.9115 36.1086 36.3375 36.9868 35.625 37.7763V42.6316C35.625 43.3026 35.3974 43.8651 34.9422 44.3191C34.487 44.773 33.9229 45 33.25 45H30.875C30.2021 45 29.638 44.773 29.1828 44.3191C28.7276 43.8651 28.5 43.3026 28.5 42.6316V40.2632H9.5V42.6316C9.5 43.3026 9.2724 43.8651 8.81719 44.3191C8.36198 44.773 7.79792 45 7.125 45H4.75ZM19.1187 7.10526H32.4188H5.81875H19.1187ZM28.5 23.6842H4.75H33.25H28.5ZM4.75 18.9474H33.25V11.8421H4.75V18.9474ZM10.6875 33.1579C11.6771 33.1579 12.5182 32.8125 13.2109 32.1217C13.9036 31.4309 14.25 30.5921 14.25 29.6053C14.25 28.6184 13.9036 27.7796 13.2109 27.0888C12.5182 26.398 11.6771 26.0526 10.6875 26.0526C9.69792 26.0526 8.85677 26.398 8.16406 27.0888C7.47135 27.7796 7.125 28.6184 7.125 29.6053C7.125 30.5921 7.47135 31.4309 8.16406 32.1217C8.85677 32.8125 9.69792 33.1579 10.6875 33.1579ZM27.3125 33.1579C28.3021 33.1579 29.1432 32.8125 29.8359 32.1217C30.5286 31.4309 30.875 30.5921 30.875 29.6053C30.875 28.6184 30.5286 27.7796 29.8359 27.0888C29.1432 26.398 28.3021 26.0526 27.3125 26.0526C26.3229 26.0526 25.4818 26.398 24.7891 27.0888C24.0964 27.7796 23.75 28.6184 23.75 29.6053C23.75 30.5921 24.0964 31.4309 24.7891 32.1217C25.4818 32.8125 26.3229 33.1579 27.3125 33.1579ZM5.81875 7.10526H32.4188C31.825 6.43421 30.5484 5.87171 28.5891 5.41776C26.6297 4.96382 23.4729 4.73684 19.1187 4.73684C14.8833 4.73684 11.7859 4.98355 9.82656 5.47697C7.86719 5.97039 6.53125 6.51316 5.81875 7.10526ZM9.5 35.5263H28.5C29.8063 35.5263 30.9245 35.0625 31.8547 34.1349C32.7849 33.2072 33.25 32.0921 33.25 30.7895V23.6842H4.75V30.7895C4.75 32.0921 5.2151 33.2072 6.14531 34.1349C7.07552 35.0625 8.19375 35.5263 9.5 35.5263Z" fill="white"/>
</svg>
