<svg width="27" height="29" viewBox="0 0 27 29" fill="none" xmlns="http://www.w3.org/2000/svg">
<path d="M17.625 27.875V16.875C17.625 16.5103 17.4801 16.1606 17.2223 15.9027C16.9644 15.6449 16.6147 15.5 16.25 15.5H10.75C10.3853 15.5 10.0356 15.6449 9.77773 15.9027C9.51987 16.1606 9.375 16.5103 9.375 16.875V27.875" stroke="black" stroke-width="2" stroke-linecap="round" stroke-linejoin="round"/>
<path d="M1.125 12.75C1.1249 12.35 1.21208 11.9547 1.38046 11.5919C1.54883 11.229 1.79435 10.9072 2.09988 10.649L11.7249 2.40039C12.2212 1.98089 12.8501 1.75073 13.5 1.75073C14.1499 1.75073 14.7788 1.98089 15.2751 2.40039L24.9001 10.649C25.2057 10.9072 25.4512 11.229 25.6195 11.5919C25.7879 11.9547 25.8751 12.35 25.875 12.75V25.125C25.875 25.8544 25.5853 26.5538 25.0695 27.0696C24.5538 27.5853 23.8543 27.875 23.125 27.875H3.875C3.14565 27.875 2.44618 27.5853 1.93046 27.0696C1.41473 26.5538 1.125 25.8544 1.125 25.125V12.75Z" stroke="black" stroke-width="2" stroke-linecap="round" stroke-linejoin="round"/>
</svg>
