<svg width="29" height="29" viewBox="0 0 29 29" fill="none" xmlns="http://www.w3.org/2000/svg">
<path d="M17.0448 6.7099C17.3802 6.87752 17.75 6.96478 18.125 6.96478C18.5 6.96478 18.8698 6.87752 19.2053 6.7099L23.6265 4.49865C23.8109 4.40653 24.0158 4.36309 24.2216 4.37247C24.4275 4.38184 24.6276 4.44372 24.8028 4.55222C24.978 4.66072 25.1226 4.81223 25.2227 4.99236C25.3229 5.17248 25.3753 5.37523 25.375 5.58132V21.0045C25.3749 21.2288 25.3123 21.4487 25.1943 21.6395C25.0763 21.8303 24.9075 21.9845 24.7068 22.0847L19.2053 24.8361C18.8698 25.0037 18.5 25.091 18.125 25.091C17.75 25.091 17.3802 25.0037 17.0448 24.8361L11.9553 22.2914C11.6198 22.1237 11.25 22.0365 10.875 22.0365C10.5 22.0365 10.1302 22.1237 9.79475 22.2914L5.37346 24.5026C5.18901 24.5948 4.98404 24.6382 4.77806 24.6288C4.57208 24.6194 4.37194 24.5574 4.19669 24.4487C4.02143 24.3401 3.87689 24.1884 3.77683 24.0081C3.67676 23.8278 3.62449 23.6249 3.625 23.4187V7.99678C3.62512 7.77244 3.6877 7.55256 3.80571 7.36177C3.92373 7.17098 4.09253 7.01681 4.29321 6.91653L9.79475 4.16515C10.1302 3.99754 10.5 3.91028 10.875 3.91028C11.25 3.91028 11.6198 3.99754 11.9553 4.16515L17.0448 6.7099Z" stroke="black" stroke-width="2" stroke-linecap="round" stroke-linejoin="round"/>
<path d="M18.125 6.96484V25.0898" stroke="black" stroke-width="2" stroke-linecap="round" stroke-linejoin="round"/>
<path d="M10.875 3.91016V22.0352" stroke="black" stroke-width="2" stroke-linecap="round" stroke-linejoin="round"/>
</svg>
