<svg width="39" height="39" viewBox="0 0 39 39" fill="none" xmlns="http://www.w3.org/2000/svg">
<path d="M6.5 34.6667V36.8333C6.5 37.4472 6.29236 37.9618 5.87708 38.3771C5.46181 38.7924 4.94722 39 4.33333 39H2.16667C1.55278 39 1.03819 38.7924 0.622917 38.3771C0.207639 37.9618 0 37.4472 0 36.8333V19.5L4.55 6.5C4.76667 5.85 5.15486 5.32639 5.71458 4.92917C6.27431 4.53194 6.89722 4.33333 7.58333 4.33333H13V0H26V4.33333H31.4167C32.1028 4.33333 32.7257 4.53194 33.2854 4.92917C33.8451 5.32639 34.2333 5.85 34.45 6.5L39 19.5V36.8333C39 37.4472 38.7924 37.9618 38.3771 38.3771C37.9618 38.7924 37.4472 39 36.8333 39H34.6667C34.0528 39 33.5382 38.7924 33.1229 38.3771C32.7076 37.9618 32.5 37.4472 32.5 36.8333V34.6667H6.5ZM6.06667 15.1667H32.9333L30.6583 8.66667H8.34167L6.06667 15.1667ZM9.75 28.1667C10.6528 28.1667 11.4201 27.8507 12.0521 27.2188C12.684 26.5868 13 25.8194 13 24.9167C13 24.0139 12.684 23.2465 12.0521 22.6146C11.4201 21.9826 10.6528 21.6667 9.75 21.6667C8.84722 21.6667 8.07986 21.9826 7.44792 22.6146C6.81597 23.2465 6.5 24.0139 6.5 24.9167C6.5 25.8194 6.81597 26.5868 7.44792 27.2188C8.07986 27.8507 8.84722 28.1667 9.75 28.1667ZM29.25 28.1667C30.1528 28.1667 30.9201 27.8507 31.5521 27.2188C32.184 26.5868 32.5 25.8194 32.5 24.9167C32.5 24.0139 32.184 23.2465 31.5521 22.6146C30.9201 21.9826 30.1528 21.6667 29.25 21.6667C28.3472 21.6667 27.5799 21.9826 26.9479 22.6146C26.316 23.2465 26 24.0139 26 24.9167C26 25.8194 26.316 26.5868 26.9479 27.2188C27.5799 27.8507 28.3472 28.1667 29.25 28.1667ZM4.33333 30.3333H34.6667V19.5H4.33333V30.3333Z" fill="#C8C8C8" fill-opacity="0.7"/>
</svg>
